ffmpeg version 5.0.1-static https://johnvansickle.com/ffmpeg/  Copyright (c) 2000-2022 the FFmpeg developers
  built with gcc 8 (Debian 8.3.0-6)
  configuration: --enable-gpl --enable-version3 --enable-static --disable-debug --disable-ffplay --disable-indev=sndio --disable-outdev=sndio --cc=gcc --enable-fontconfig --enable-frei0r --enable-gnutls --enable-gmp --enable-libgme --enable-gray --enable-libfribidi --enable-libass --enable-libfreetype --enable-libmp3lame --enable-libopencore-amrnb --enable-libopencore-amrwb --enable-libopenjpeg --enable-librubberband --enable-libsoxr --enable-libspeex --enable-libsrt --enable-libvorbis --enable-libopus --enable-libtheora --enable-libvidstab --enable-libvo-amrwbenc --enable-libvpx --enable-libwebp --enable-libx264 --enable-libx265 --enable-libxml2 --enable-libxvid --enable-libzimg
  libavutil      57. 17.100 / 57. 17.100
  libavcodec     59. 18.100 / 59. 18.100
  libavformat    59. 16.100 / 59. 16.100
  libavdevice    59.  4.100 / 59.  4.100
  libavfilter     8. 24.100 /  8. 24.100
  libswscale      6.  4.100 /  6.  4.100
  libswresample   4.  3.100 /  4.  3.100
  libpostproc    56.  3.100 / 56.  3.100
Input #0, image2, from '2DEvolve/skeleplt-%03d.png':
  Duration: 00:00:06.48, start: 0.000000, bitrate: N/A
  Stream #0:0: Video: png, rgba(pc), 640x480 [SAR 3937:3937 DAR 4:3], 25 fps, 25 tbr, 25 tbn
Stream mapping:
  Stream #0:0 -> #0:0 (png (native) -> h264 (libx264))
Press [q] to stop, [?] for help
[libx264 @ 0xbc9e380] using SAR=1/1
[libx264 @ 0xbc9e380] using cpu capabilities: MMX2 SSE2Fast SSSE3 SSE4.2 AVX FMA3 BMI2 AVX2
[libx264 @ 0xbc9e380] profile High, level 2.2, 4:2:0, 8-bit
[libx264 @ 0xbc9e380] 264 - core 164 r3094 bfc87b7 - H.264/MPEG-4 AVC codec - Copyleft 2003-2022 - http://www.videolan.org/x264.html - options: cabac=1 ref=3 deblock=1:0:0 analyse=0x3:0x113 me=hex subme=7 psy=1 psy_rd=1.00:0.00 mixed_ref=1 me_range=16 chroma_me=1 trellis=1 8x8dct=1 cqm=0 deadzone=21,11 fast_pskip=1 chroma_qp_offset=-2 threads=15 lookahead_threads=2 sliced_threads=0 nr=0 decimate=1 interlaced=0 bluray_compat=0 constrained_intra=0 bframes=3 b_pyramid=2 b_adapt=1 b_bias=0 direct=1 weightb=1 open_gop=0 weightp=2 keyint=250 keyint_min=10 scenecut=40 intra_refresh=0 rc_lookahead=40 rc=crf mbtree=1 crf=23.0 qcomp=0.60 qpmin=0 qpmax=69 qpstep=4 ip_ratio=1.40 aq=1:1.00
Output #0, mp4, to '2DEvolve.mp4':
  Metadata:
    encoder         : Lavf59.16.100
  Stream #0:0: Video: h264 (avc1 / 0x31637661), yuv420p(tv, progressive), 640x480 [SAR 1:1 DAR 4:3], q=2-31, 10 fps, 10240 tbn
    Metadata:
      encoder         : Lavc59.18.100 libx264
    Side data:
      cpb: bitrate max/min/avg: 0/0/0 buffer size: 0 vbv_delay: N/A
frame=    1 fps=0.0 q=0.0 size=       0kB time=00:00:00.00 bitrate=N/A speed=   0x    frame=  162 fps=0.0 q=-1.0 Lsize=     221kB time=00:00:15.90 bitrate= 113.7kbits/s speed=47.5x    
video:218kB audio:0kB subtitle:0kB other streams:0kB global headers:0kB muxing overhead: 1.166035%
[libx264 @ 0xbc9e380] frame I:1     Avg QP:15.03  size:  9577
[libx264 @ 0xbc9e380] frame P:74    Avg QP:22.90  size:  1678
[libx264 @ 0xbc9e380] frame B:87    Avg QP:28.25  size:  1021
[libx264 @ 0xbc9e380] consecutive B-frames: 14.8% 33.3% 22.2% 29.6%
[libx264 @ 0xbc9e380] mb I  I16..4: 49.6% 35.2% 15.2%
[libx264 @ 0xbc9e380] mb P  I16..4:  0.9%  0.9%  0.2%  P16..4:  5.1%  3.1%  1.3%  0.0%  0.0%    skip:88.4%
[libx264 @ 0xbc9e380] mb B  I16..4:  0.1%  0.3%  0.0%  B16..8:  8.2%  3.2%  0.8%  direct: 0.3%  skip:87.0%  L0:52.1% L1:41.4% BI: 6.6%
[libx264 @ 0xbc9e380] 8x8 transform intra:45.1% inter:8.5%
[libx264 @ 0xbc9e380] coded y,uvDC,uvAC intra: 9.4% 7.3% 6.7% inter: 2.0% 0.7% 0.6%
[libx264 @ 0xbc9e380] i16 v,h,dc,p: 63% 31%  6%  0%
[libx264 @ 0xbc9e380] i8 v,h,dc,ddl,ddr,vr,hd,vl,hu: 18%  5% 77%  0%  0%  0%  0%  0%  0%
[libx264 @ 0xbc9e380] i4 v,h,dc,ddl,ddr,vr,hd,vl,hu: 28% 19% 35%  3%  2%  5%  3%  4%  2%
[libx264 @ 0xbc9e380] i8c dc,h,v,p: 90%  4%  7%  0%
[libx264 @ 0xbc9e380] Weighted P-Frames: Y:0.0% UV:0.0%
[libx264 @ 0xbc9e380] ref P L0: 62.0%  2.3% 21.7% 14.1%
[libx264 @ 0xbc9e380] ref B L0: 70.4% 25.1%  4.5%
[libx264 @ 0xbc9e380] ref B L1: 96.1%  3.9%
[libx264 @ 0xbc9e380] kb/s:109.94
